<?xml version="1.0" standalone="no"?>
<!DOCTYPE svg PUBLIC "-//W3C//DTD SVG 20010904//EN"
 "http://www.w3.org/TR/2001/REC-SVG-20010904/DTD/svg10.dtd">
<svg version="1.0" xmlns="http://www.w3.org/2000/svg"
 width="415.000000pt" height="415.000000pt" viewBox="0 0 415.000000 415.000000"
 preserveAspectRatio="xMidYMid meet">
<metadata>
Created by potrace 1.16, written by Peter Selinger 2001-2019
</metadata>
<g transform="translate(0.000000,415.000000) scale(0.100000,-0.100000)"
fill="#000000" stroke="none">
<path d="M0 2075 l0 -2075 169 0 169 0 37 43 c20 23 59 76 85 117 83 128 74
130 92 -19 9 -73 19 -135 22 -139 13 -13 15 8 6 64 -6 32 -14 99 -18 149 -8
85 -7 93 19 145 52 108 72 181 77 281 3 77 1 102 -13 130 -24 48 -55 79 -78
79 -16 0 -17 2 -7 16 27 32 48 36 78 14 54 -40 150 0 187 77 14 29 29 46 50
53 49 16 140 39 143 35 9 -9 -10 -23 -40 -31 l-33 -8 39 -4 c38 -3 38 -3 32
-40 -3 -20 -6 -53 -6 -73 0 -33 -4 -39 -37 -53 l-38 -17 37 5 c43 5 43 6 53
-146 l7 -97 -39 -18 c-47 -22 -48 -22 -41 -29 3 -3 23 2 43 10 21 9 39 16 40
16 2 0 6 -28 10 -62 4 -35 16 -96 26 -137 22 -88 23 -91 7 -91 -7 0 -31 -9
-53 -20 l-40 -20 45 7 c25 3 51 6 58 7 15 1 52 -101 52 -143 0 -13 -14 -41
-31 -62 l-31 -39 1496 0 1496 0 0 24 c0 28 -16 43 -23 24 -3 -8 -6 -6 -6 5 -1
10 -5 15 -11 12 -6 -3 -7 1 -4 9 3 9 2 16 -4 16 -5 0 -12 9 -15 21 -4 14 -2
19 8 15 7 -2 16 2 19 11 4 9 9 13 13 10 3 -4 14 -2 24 3 12 7 20 7 24 0 3 -5
17 -10 31 -10 19 0 24 5 24 25 l0 24 -79 -6 -80 -6 -16 56 c-9 31 -18 68 -21
83 -3 15 -7 31 -10 36 -3 5 -1 15 6 23 9 10 7 15 -7 19 -10 4 -31 37 -48 73
-35 79 -82 154 -172 276 -36 48 -63 90 -60 94 3 3 28 6 54 8 26 1 62 7 78 13
25 9 15 10 -62 11 -102 1 -113 8 -113 69 0 43 -37 216 -64 302 l-24 75 29 9
c16 5 29 13 29 19 0 5 6 5 14 -2 9 -8 30 -9 67 -2 30 5 43 9 29 10 -15 0 -31
6 -38 13 -9 9 -12 9 -12 -1 0 -7 -5 -9 -12 -4 -18 10 -91 12 -104 2 -7 -6 -29
25 -64 89 -91 166 -201 322 -277 393 -41 39 -334 258 -370 278 -31 16 -29 26
7 41 17 7 62 43 101 81 95 93 121 150 127 281 3 54 8 98 12 98 4 0 39 -18 79
-39 39 -22 71 -35 71 -29 0 7 -11 40 -25 75 -30 73 -65 207 -64 243 0 22 6 18
59 -39 58 -62 60 -63 60 -35 0 58 -32 207 -63 297 l-32 93 60 -8 c33 -4 75
-10 93 -13 17 -3 32 -2 32 2 0 5 -53 62 -119 128 -109 110 -201 230 -201 261
0 7 36 24 85 39 47 15 85 30 85 35 0 4 -26 17 -58 28 -82 30 -257 117 -298
148 l-34 26 72 42 c98 57 118 70 118 78 0 4 -12 5 -27 3 -109 -19 -169 -13
-177 19 -16 58 -119 134 -194 143 -43 5 -50 8 -41 19 16 20 -24 18 -83 -3 -43
-15 -48 -15 -72 0 -22 15 -67 17 -402 17 l-378 -1 48 -48 48 -49 -59 -7 c-64
-7 -83 -17 -230 -116 -170 -116 -285 -159 -422 -159 l-75 0 35 -36 c43 -45
102 -80 168 -100 28 -8 51 -19 51 -24 0 -5 -13 -16 -28 -24 -60 -31 -136 -128
-181 -232 -62 -142 -115 -254 -173 -367 -27 -55 -47 -101 -44 -104 5 -6 33 13
142 94 39 29 73 53 76 53 10 0 -21 -104 -58 -196 -43 -107 -84 -181 -118 -213
-29 -27 -33 -41 -13 -41 23 0 170 76 211 109 22 17 41 30 43 28 5 -5 -23 -164
-43 -250 -9 -37 -14 -70 -11 -73 3 -3 18 7 34 23 33 34 83 73 93 73 3 0 7 -29
8 -65 1 -122 64 -234 164 -293 16 -9 28 -19 28 -22 0 -4 -24 -17 -52 -31 -67
-31 -164 -95 -204 -134 -100 -98 -286 -329 -339 -420 -80 -136 -141 -334 -158
-513 l-12 -127 -47 -57 c-26 -31 -65 -90 -88 -130 -98 -170 -102 -176 -121
-171 -11 3 -19 9 -19 14 0 5 -3 8 -8 8 -21 -4 -30 4 -46 39 -10 20 -27 44 -40
53 l-22 17 -1 -53 c-2 -57 12 -74 46 -56 15 8 17 6 13 -17 -3 -20 4 -36 27
-59 l30 -32 -32 -70 c-21 -46 -37 -69 -45 -66 -7 3 -23 -4 -34 -15 -19 -18
-20 -24 -10 -57 13 -41 1 -66 -20 -45 -14 14 -17 50 -21 275 -3 164 -1 179 15
188 17 9 17 11 -3 38 l-21 29 11 884 c12 956 24 1449 42 1736 6 101 9 267 5
370 -3 103 -6 244 -6 315 l0 127 -75 0 -75 0 0 -2075z m2374 2023 c-4 -6 -10
-5 -15 3 -14 22 -10 33 6 19 8 -7 12 -17 9 -22z m-526 -512 c1 -166 22 -340
49 -426 l18 -55 3 55 c3 79 31 351 39 378 4 18 8 20 14 10 6 -9 9 -7 9 10 0
34 15 27 43 -20 119 -204 262 -387 351 -451 11 -8 16 -19 12 -26 -10 -15 -89
-54 -154 -76 -51 -16 -56 -16 -94 1 -22 10 -48 29 -59 42 -10 14 -19 21 -19
15 0 -5 13 -24 28 -42 41 -49 104 -53 192 -13 78 35 197 110 263 165 29 25 51
37 57 31 5 -5 22 -56 39 -112 16 -57 32 -106 34 -109 3 -2 8 23 11 56 20 201
17 187 31 160 7 -13 20 -57 30 -97 15 -62 17 -104 12 -275 -3 -111 -11 -223
-17 -249 -6 -25 -10 -64 -8 -85 l3 -38 34 53 c18 29 35 51 37 50 6 -6 -48
-184 -79 -258 -57 -140 -113 -208 -240 -293 -175 -117 -397 -207 -514 -207
-64 0 -207 51 -297 106 -33 21 -63 40 -66 44 -3 3 -26 23 -52 43 -25 21 -54
49 -63 63 -16 24 -15 25 22 40 21 9 52 22 68 29 17 7 51 21 77 31 26 10 42 21
37 25 -6 3 4 9 22 13 18 3 30 9 26 12 -9 9 -187 -45 -236 -72 -24 -13 -47 -21
-53 -18 -15 9 -75 140 -103 222 -31 93 -62 243 -70 342 -3 41 -8 85 -11 98 -7
35 11 26 25 -13 18 -50 31 -43 31 18 1 98 29 265 60 354 17 48 31 96 31 106 0
9 4 15 8 13 4 -3 15 11 25 31 9 19 20 33 23 29 3 -3 9 -56 12 -118 l7 -113 13
45 c62 214 171 487 192 482 6 -1 8 2 4 8 -6 10 43 88 75 118 10 9 29 18 43 18
l24 2 1 -152z m486 -2 c3 -9 13 -14 20 -11 9 4 25 -8 42 -30 15 -20 21 -33 13
-28 -11 7 -11 5 1 -11 8 -10 20 -24 25 -30 22 -25 93 -137 125 -197 23 -44 24
-49 10 -75 -18 -32 -151 -135 -162 -124 -20 20 -98 422 -98 503 0 23 16 25 24
3z m676 -1001 c19 -24 22 -37 17 -98 -6 -91 -41 -169 -107 -239 -62 -66 -129
-100 -176 -91 -44 8 -49 20 -29 65 15 33 23 40 59 46 81 13 166 79 166 128 0
27 -19 56 -43 67 -19 8 -18 9 6 4 17 -3 26 -2 23 4 -3 5 5 16 19 25 29 19 35
49 8 39 -10 -4 -24 -13 -31 -20 -7 -7 -18 -13 -24 -13 -15 0 30 38 54 46 25 7
32 0 33 -34 0 -29 18 -34 23 -7 12 58 -30 87 -90 62 -56 -24 -88 -73 -88 -139
0 -45 -4 -59 -24 -77 -14 -13 -29 -22 -34 -20 -11 5 63 196 86 223 52 59 118
71 152 29z m-1746 -67 c21 -19 36 -43 36 -56 0 -21 -3 -20 -40 14 -49 44 -85
48 -94 10 -4 -15 -3 -31 2 -36 6 -6 12 3 16 23 5 27 8 30 21 19 19 -16 19 -39
0 -46 -20 -8 -19 -30 1 -38 10 -4 14 -16 13 -33 -2 -16 0 -34 4 -41 5 -6 5
-18 1 -24 -4 -7 -4 -10 1 -6 4 4 15 -6 24 -24 10 -17 39 -43 67 -59 70 -41 70
-41 88 -76 21 -43 20 -46 -10 -39 -82 21 -190 112 -237 201 -30 56 -31 192 -3
224 28 31 68 27 110 -13z m0 -85 c-4 -3 -9 0 -11 7 -3 6 -9 12 -14 12 -6 0 -7
-4 -4 -10 3 -5 1 -10 -4 -10 -13 0 -13 3 -5 25 6 14 8 14 25 -1 11 -10 16 -20
13 -23z m30 -19 c2 -4 -5 -9 -17 -9 -17 -2 -19 0 -7 7 18 12 18 12 24 2z
m1584 -65 c-18 -32 -33 -45 -63 -55 -21 -7 -46 -11 -54 -9 -22 4 68 61 94 60
11 -1 14 1 8 4 -19 7 -16 41 5 46 31 7 33 -4 10 -46z m-1584 17 c-6 -3 -9 -17
-7 -32 4 -21 2 -24 -6 -12 -9 13 -11 12 -12 -5 -1 -17 -2 -16 -9 5 -14 43 -11
50 18 49 15 0 22 -3 16 -5z m43 -59 c2 -14 1 -25 -2 -25 -9 0 -23 44 -18 53 7
12 17 -1 20 -28z m-37 -15 c0 -5 10 -19 23 -30 l22 -22 -27 13 c-16 7 -28 19
-28 26 0 8 -5 11 -12 7 -7 -4 -8 -3 -4 4 9 14 26 16 26 2z m365 -140 c-27 -12
-43 -12 -25 0 8 5 22 9 30 9 10 0 8 -3 -5 -9z m1027 -2 c-7 -7 -12 -19 -12
-27 0 -12 3 -11 18 2 19 18 72 23 72 8 0 -5 -10 -15 -22 -24 -13 -8 -20 -18
-15 -23 4 -4 18 3 32 16 29 27 30 27 124 -41 41 -30 102 -74 136 -99 96 -69
137 -109 131 -125 -3 -8 -10 -15 -16 -15 -6 0 -8 -5 -5 -11 5 -7 14 -4 26 7
19 17 21 16 49 -11 34 -32 38 -50 14 -59 -9 -4 -14 -9 -11 -13 4 -3 14 0 22 7
13 11 19 10 33 -4 14 -14 15 -20 4 -36 -11 -19 -10 -20 10 -15 20 5 30 -6 76
-74 60 -91 160 -295 190 -391 41 -129 77 -340 57 -340 -14 0 -73 49 -67 55 4
5 2 5 -4 2 -7 -4 -40 2 -75 14 -35 11 -94 26 -131 34 -68 15 -218 64 -259 85
-33 17 -80 69 -74 81 4 5 -1 9 -9 9 -9 0 -18 11 -22 25 -3 14 -10 22 -16 19
-5 -3 -17 1 -26 9 -18 16 -80 25 -97 15 -11 -7 -94 41 -95 55 0 4 -8 15 -17
25 -54 56 -86 104 -78 116 3 3 2 4 -2 1 -3 -3 -19 13 -35 35 -35 47 -69 53
-112 19 -47 -37 -51 -22 -51 228 0 209 1 227 19 237 63 38 147 109 186 158 25
32 49 58 55 58 5 0 4 -5 -3 -12z m-1152 -42 c0 -2 -7 -7 -16 -10 -8 -3 -12 -2
-9 4 6 10 25 14 25 6z m-140 -26 c0 -12 -147 -100 -166 -100 -8 0 -13 -4 -10
-9 3 -4 -17 -23 -44 -42 -53 -36 -67 -56 -51 -72 7 -7 22 -1 45 16 19 15 40
27 46 27 6 0 18 7 27 16 9 8 22 13 30 10 8 -3 12 -2 9 3 -5 8 39 45 54 46 3 0
20 10 38 23 34 25 96 47 87 31 -4 -5 -2 -9 4 -9 11 0 77 -58 70 -62 -2 -2 -38
-19 -79 -38 -69 -32 -96 -51 -153 -104 -28 -27 -3 -35 26 -9 49 43 126 91 179
111 l56 21 32 -24 33 -24 -27 -11 c-15 -5 -25 -14 -22 -19 4 -5 18 -5 36 2 16
6 32 8 35 5 14 -14 20 -108 13 -217 -8 -140 -11 -181 -15 -181 -1 0 -17 9 -35
20 -18 11 -38 20 -45 20 -15 0 -54 -37 -77 -72 -10 -15 -22 -25 -27 -22 -5 3
-6 -2 -3 -10 3 -9 -3 -20 -15 -28 -12 -7 -21 -16 -21 -21 0 -15 -43 -66 -52
-61 -5 3 -7 1 -6 -6 4 -14 -36 -36 -95 -51 -28 -7 -59 -24 -75 -40 -15 -16
-33 -29 -40 -29 -7 0 -10 -5 -7 -10 4 -6 2 -9 -3 -8 -5 2 -20 -8 -31 -22 -17
-19 -24 -21 -30 -11 -7 10 -10 9 -16 -8 -3 -12 -11 -19 -16 -16 -5 4 -9 1 -9
-4 0 -6 -3 -10 -7 -9 -5 0 -15 -2 -23 -5 -16 -6 -121 -37 -127 -37 -2 0 -2 4
1 9 3 5 -1 12 -10 15 -15 6 -43 -17 -44 -36 0 -5 -8 -8 -17 -8 -14 0 -12 5 8
27 13 15 16 21 7 14 -12 -9 -18 -9 -18 -3 0 19 -27 2 -38 -23 -8 -17 -23 -26
-49 -31 -21 -3 -52 -15 -69 -25 -17 -11 -39 -19 -48 -19 -9 0 -16 -6 -16 -14
0 -7 -7 -19 -15 -26 -13 -11 -15 -8 -15 17 0 22 6 32 28 40 27 11 27 11 2 10
-22 -2 -25 2 -25 33 0 27 4 35 18 34 9 -1 17 2 17 7 0 5 -9 9 -19 9 -15 0 -18
5 -13 23 3 12 12 26 20 31 11 6 11 10 2 16 -23 14 38 203 117 355 37 73 105
166 200 278 75 87 86 96 104 86 26 -14 38 -3 15 14 -16 12 -15 14 8 36 22 21
29 23 51 13 16 -8 26 -8 31 -1 3 6 -4 13 -15 16 -17 4 -19 8 -9 20 7 9 21 12
35 8 19 -4 23 -2 21 11 -2 12 21 29 82 61 47 24 88 48 93 52 9 9 67 2 67 -9z
m80 -4 c0 -2 -7 -7 -16 -10 -8 -3 -12 -2 -9 4 6 10 25 14 25 6z m923 -301 c-4
-83 -2 -161 5 -203 6 -37 17 -103 23 -147 7 -44 20 -104 30 -134 16 -51 16
-56 -1 -106 -32 -92 -44 -109 -92 -123 -235 -67 -251 -70 -281 -59 -22 7 -35
7 -48 -2 -34 -21 -83 -13 -259 40 -173 52 -190 79 -139 220 15 41 33 104 40
140 20 107 30 140 39 134 5 -3 8 8 8 25 -1 16 -5 30 -10 30 -4 0 -8 33 -9 73
0 39 -4 97 -8 127 -8 51 -4 81 6 52 3 -6 9 -10 13 -7 5 3 44 -11 87 -31 94
-45 154 -52 266 -29 71 14 285 101 312 126 21 21 24 3 18 -126z m-1080 -542
c-7 -2 -19 -2 -25 0 -7 3 -2 5 12 5 14 0 19 -2 13 -5z m117 -80 c144 -63 359
-136 474 -162 44 -9 81 -22 84 -29 2 -7 -5 -12 -15 -12 -43 0 -280 76 -453
145 -181 71 -270 97 -270 77 0 -5 -6 -12 -12 -15 -7 -3 -31 -13 -53 -22 l-40
-16 52 51 c62 60 54 61 233 -17z m1487 24 c56 -62 55 -76 -2 -26 -33 29 -40
31 -88 26 -29 -3 -108 -27 -177 -53 -276 -103 -513 -175 -528 -159 -8 8 -4 10
123 49 157 49 353 114 493 164 61 22 121 38 131 35 11 -3 32 -19 48 -36z
m-1170 -196 c48 -16 116 -35 151 -42 34 -7 62 -17 62 -22 0 -14 -31 -77 -38
-77 -3 0 -20 14 -37 30 -21 21 -63 41 -130 63 -77 25 -100 37 -106 55 -11 28
-8 28 98 -7z m623 11 c0 -22 -33 -44 -115 -75 l-90 -35 -18 21 c-17 20 -17 21
0 31 26 14 185 65 206 66 9 0 17 -4 17 -8z m-323 -47 c0 -25 -4 -45 -8 -45 -8
0 -18 71 -12 83 11 20 21 2 20 -38z m36 -8 c-3 -20 -9 -34 -14 -31 -11 6 -12
68 -2 78 14 13 22 -11 16 -47z m-205 -95 l25 -32 -21 -65 c-12 -35 -25 -83
-28 -105 -6 -39 -6 -40 23 -40 29 0 32 4 63 93 18 50 41 112 52 137 18 45 19
46 66 45 40 0 47 -3 50 -21 2 -11 -4 -27 -13 -34 -8 -7 -15 -17 -15 -23 0 -5
8 -3 19 7 23 21 29 14 74 -84 l34 -72 -81 -172 c-104 -221 -139 -289 -152
-293 -27 -9 -304 656 -304 729 0 12 17 10 91 -11 76 -22 96 -32 117 -59z m99
10 c-14 -31 -38 -99 -53 -149 -17 -57 -33 -93 -41 -93 -29 0 -10 61 70 234 23
49 43 83 45 77 2 -7 -7 -38 -21 -69z m182 1 c84 -149 123 -264 82 -238 -5 3
-26 49 -47 103 -20 53 -50 123 -66 155 -42 84 -19 69 31 -20z m181 73 c0 -8
-92 -196 -96 -196 -2 0 -19 31 -38 69 l-35 69 72 30 c68 28 97 37 97 28z"/>
<path d="M1530 3116 c0 -2 8 -10 18 -17 15 -13 16 -12 3 4 -13 16 -21 21 -21
13z"/>
<path d="M1603 3057 c56 -51 142 -90 202 -91 l50 -1 28 58 c16 32 26 61 24 64
-3 2 -14 -15 -25 -39 -24 -55 -47 -78 -77 -78 -30 0 -158 60 -205 96 -34 26
-34 25 3 -9z"/>
<path d="M1995 3020 c2 -27 10 -49 21 -57 27 -20 39 -15 14 5 -12 10 -26 36
-31 58 l-8 39 4 -45z"/>
<path d="M2374 2960 c-75 -17 -144 -85 -159 -155 -5 -21 1 -15 18 21 30 61 84
108 143 123 24 6 44 13 44 16 0 6 -5 5 -46 -5z"/>
<path d="M2438 2953 c6 -2 18 -2 25 0 6 3 1 5 -13 5 -14 0 -19 -2 -12 -5z"/>
<path d="M1629 2931 c75 -27 119 -74 141 -152 21 -72 25 -67 10 12 -15 80 -83
141 -172 154 -23 4 -17 0 21 -14z"/>
<path d="M2490 2943 c8 -4 31 -17 50 -31 l35 -24 -35 31 c-19 17 -41 31 -50
30 -13 0 -13 -1 0 -6z"/>
<path d="M1515 2924 c-16 -8 -38 -23 -49 -32 -21 -19 -56 -85 -56 -104 1 -7 8
3 16 22 16 36 52 80 66 80 4 0 8 -10 8 -23 0 -51 67 -66 96 -22 15 23 15 27 0
50 -9 14 -21 25 -27 25 -6 0 -7 5 -4 10 9 15 -16 12 -50 -6z"/>
<path d="M2320 2891 c-14 -28 -12 -67 4 -80 24 -20 69 -9 85 20 13 24 13 29
-2 53 -22 32 -71 36 -87 7z"/>
<path d="M2580 2865 c7 -8 18 -32 26 -52 8 -23 13 -30 14 -18 0 21 -35 85 -46
85 -4 0 -1 -7 6 -15z"/>
<path d="M1878 2815 c5 -51 -11 -122 -41 -178 l-21 -37 29 -55 c15 -30 32 -55
37 -55 12 0 11 4 -14 55 l-23 46 22 39 c13 21 25 56 29 79 7 46 -3 151 -15
151 -5 0 -6 -20 -3 -45z"/>
<path d="M1402 2750 c0 -14 2 -19 5 -12 2 6 2 18 0 25 -3 6 -5 1 -5 -13z"/>
<path d="M2621 2754 c0 -11 3 -14 6 -6 3 7 2 16 -1 19 -3 4 -6 -2 -5 -13z"/>
<path d="M2254 2581 c17 -28 90 -51 156 -49 l65 1 -78 8 c-52 5 -90 16 -114
30 -20 13 -33 17 -29 10z"/>
<path d="M1450 2577 c0 -3 15 -15 34 -26 25 -16 48 -21 92 -20 l59 2 -65 7
c-36 3 -77 14 -92 24 -16 10 -28 16 -28 13z"/>
<path d="M1665 2555 c-16 -7 -23 -14 -14 -14 8 -1 24 6 35 14 24 18 18 18 -21
0z"/>
<path d="M2568 2500 c-2 -17 -14 -27 -43 -37 -47 -16 -65 -11 -66 19 -1 22 -1
22 -8 -2 -6 -23 -12 -25 -58 -25 -29 1 -49 -3 -47 -7 3 -4 25 -8 50 -8 37 0
46 -4 53 -22 7 -21 8 -21 13 -2 4 14 22 24 61 36 55 15 57 15 72 -6 l16 -21
-7 23 c-4 16 0 28 13 38 17 14 17 15 -4 9 -15 -4 -25 0 -31 12 -9 15 -10 14
-14 -7z"/>
<path d="M1759 2401 c-16 -16 -29 -35 -29 -43 0 -34 22 -83 55 -119 40 -45 43
-59 15 -84 -39 -36 -35 -108 9 -142 26 -20 112 -16 146 7 17 11 25 20 19 20
-5 0 -19 -7 -30 -15 -11 -8 -41 -15 -70 -15 -62 0 -88 23 -88 77 0 30 7 42 43
74 l44 37 -30 15 c-85 44 -118 133 -68 182 37 38 79 31 138 -23 15 -14 27 -21
27 -15 0 25 -83 73 -125 73 -16 0 -38 -12 -56 -29z"/>
<path d="M1768 2193 c6 -2 18 -2 25 0 6 3 1 5 -13 5 -14 0 -19 -2 -12 -5z"/>
<path d="M1190 2464 c0 -8 5 -12 10 -9 6 4 8 11 5 16 -9 14 -15 11 -15 -7z"/>
<path d="M2560 1950 c0 -6 8 -13 18 -17 86 -30 182 -80 243 -125 55 -42 59
-44 59 -25 0 19 -39 46 -162 115 -29 16 -143 62 -154 62 -2 0 -4 -5 -4 -10z"/>
<path d="M2580 1853 c0 -5 32 -21 71 -38 39 -16 73 -36 76 -42 3 -7 9 -10 14
-8 5 3 20 -2 33 -11 14 -9 31 -14 38 -12 17 6 -65 59 -140 91 -64 27 -92 33
-92 20z"/>
<path d="M2561 1791 c5 -14 160 -83 168 -75 10 10 -51 48 -93 60 -23 7 -49 15
-60 19 -13 6 -17 4 -15 -4z"/>
<path d="M2540 1710 c0 -9 83 -50 101 -50 24 0 4 23 -33 40 -48 22 -68 25 -68
10z"/>
<path d="M3156 1592 c-3 -5 4 -18 15 -28 12 -11 44 -48 72 -83 58 -72 75 -66
27 9 -34 53 -105 116 -114 102z"/>
<path d="M3130 1487 c0 -17 87 -137 100 -137 17 0 11 15 -21 60 -43 59 -79 94
-79 77z"/>
<path d="M3060 1414 c0 -3 10 -19 23 -34 50 -63 61 -79 114 -168 31 -51 58
-90 61 -88 15 15 -84 193 -141 255 -34 37 -57 51 -57 35z"/>
<path d="M3327 1384 c-3 -3 12 -39 33 -80 21 -41 48 -106 61 -144 21 -65 39
-90 39 -56 0 23 -49 154 -81 218 -29 57 -41 72 -52 62z"/>
<path d="M3035 1330 c-4 -6 0 -19 8 -28 25 -29 83 -116 90 -136 5 -13 11 -16
18 -9 7 7 -4 34 -35 85 -51 85 -70 105 -81 88z"/>
<path d="M3275 1268 c4 -18 11 -39 16 -48 5 -8 19 -37 30 -65 24 -56 37 -46
18 12 -14 46 -57 133 -65 133 -3 0 -2 -14 1 -32z"/>
<path d="M2978 1195 c36 -53 52 -67 52 -44 0 29 -54 99 -76 99 -8 0 2 -22 24
-55z"/>
<path d="M1443 1814 c-41 -25 -55 -44 -32 -44 10 0 117 55 128 66 2 2 -9 4
-25 4 -16 -1 -48 -12 -71 -26z"/>
<path d="M1574 1789 c-3 -6 -15 -9 -25 -6 -11 3 -17 2 -15 -2 3 -4 -17 -21
-44 -37 -45 -27 -62 -44 -42 -44 13 -1 181 85 181 93 1 11 -47 8 -55 -4z"/>
<path d="M1534 1706 c-10 -8 -16 -17 -13 -21 8 -7 59 15 59 27 0 13 -24 10
-46 -6z"/>
<path d="M1099 1610 c-20 -16 -39 -27 -43 -25 -3 3 -4 2 -1 -1 2 -4 -20 -39
-50 -79 -57 -78 -95 -145 -95 -170 0 -26 16 -16 34 22 31 66 102 167 155 220
28 29 51 55 51 58 0 12 -18 3 -51 -25z"/>
<path d="M1125 1479 c-4 -5 -14 -8 -22 -5 -8 3 -11 1 -8 -4 3 -5 1 -19 -6 -31
-9 -18 -13 -19 -21 -8 -8 11 -9 11 -5 -2 3 -9 -10 -38 -29 -65 -32 -47 -43
-84 -26 -84 5 0 15 11 22 25 7 13 18 21 23 18 6 -4 8 0 4 10 -4 10 12 40 43
81 27 36 45 68 40 71 -5 3 -12 0 -15 -6z"/>
<path d="M1106 1381 c5 -20 3 -23 -10 -18 -11 4 -15 3 -11 -4 4 -6 13 -8 21
-5 9 3 4 -9 -11 -28 -30 -40 -35 -68 -6 -42 15 13 20 14 25 4 3 -7 4 -4 1 7
-3 13 5 31 21 48 25 28 25 58 -1 37 -10 -8 -16 -7 -25 7 -9 16 -10 15 -4 -6z"/>
<path d="M1066 1337 c3 -10 9 -15 12 -12 3 3 0 11 -7 18 -10 9 -11 8 -5 -6z"/>
<path d="M1166 1339 c2 -4 -5 -23 -16 -42 -29 -49 -8 -57 24 -10 31 45 33 62
7 60 -11 0 -18 -4 -15 -8z"/>
<path d="M3750 3463 c0 -5 4 -14 9 -22 8 -12 12 -12 25 -2 9 7 13 17 10 22 -6
11 -44 12 -44 2z"/>
<path d="M3827 1944 c-3 -4 -35 -6 -71 -5 -67 1 -97 -13 -51 -25 15 -4 62 -4
106 -2 44 3 82 1 84 -3 10 -15 75 12 75 32 0 10 -133 12 -143 3z"/>
<path d="M3943 892 c-65 -4 -96 -31 -37 -33 216 -6 244 -5 244 13 0 10 -8 18
-17 19 -10 0 -45 1 -78 2 -33 1 -83 1 -112 -1z"/>
<path d="M777 750 c-38 -33 -63 -103 -53 -144 10 -40 33 -56 82 -56 24 0 44
-2 44 -5 0 -4 -13 -54 -48 -176 -14 -50 -28 -75 -60 -107 -73 -73 -92 -153
-47 -197 13 -14 29 -25 35 -25 5 0 10 -9 10 -20 0 -17 7 -20 45 -20 44 0 45 0
45 33 0 22 8 41 21 53 33 30 59 89 59 135 0 33 -6 47 -31 70 l-30 28 10 119
c8 93 15 128 35 169 33 66 34 122 3 151 -34 32 -79 29 -120 -8z"/>
<path d="M4123 52 c-30 -4 -51 -30 -29 -37 9 -3 23 -7 31 -10 9 -2 18 2 21 10
10 24 0 40 -23 37z"/>
</g>
</svg>
